<svg width="112" height="40" viewBox="0 0 112 40" fill="none" xmlns="http://www.w3.org/2000/svg">
<path d="M109 40C107.343 40 106 38.6569 106 37V25C106 23.3431 107.343 22 109 22C110.657 22 112 23.3431 112 25V37C112 38.6569 110.657 40 109 40ZM101 40C98.7909 40 97 38.2091 97 36V14C97 11.7909 98.7909 10 101 10C103.209 10 105 11.7909 105 14V36C105 38.2091 103.209 40 101 40ZM92 40C89.7909 40 88 38.2091 88 36V24C88 21.7909 89.7909 20 92 20C94.2091 20 96 21.7909 96 24V36C96 38.2091 94.2091 40 92 40ZM83 40C80.7909 40 79 38.2091 79 36V31C79 28.7909 80.7909 27 83 27C85.2091 27 87 28.7909 87 31V36C87 38.2091 85.2091 40 83 40ZM74 40C71.7909 40 70 38.2091 70 36V19C70 16.7909 71.7909 15 74 15C76.2091 15 78 16.7909 78 19V36C78 38.2091 76.2091 40 74 40ZM65 40C62.7909 40 61 38.2091 61 36V9C61 6.79086 62.7909 5 65 5C67.2091 5 69 6.79086 69 9V36C69 38.2091 67.2091 40 65 40ZM56 40C53.7909 40 52 38.2091 52 36V19C52 16.7909 53.7909 15 56 15C58.2091 15 60 16.7909 60 19V36C60 38.2091 58.2091 40 56 40ZM47 40C44.7909 40 43 38.2091 43 36V24C43 21.7909 44.7909 20 47 20C49.2091 20 51 21.7909 51 24V36C51 38.2091 49.2091 40 47 40ZM38 40C35.7909 40 34 38.2091 34 36V4C34 1.79086 35.7909 0 38 0C40.2091 0 42 1.79086 42 4V36C42 38.2091 40.2091 40 38 40ZM29 40C26.7909 40 25 38.2091 25 36V14C25 11.7909 26.7909 10 29 10C31.2091 10 33 11.7909 33 14V36C33 38.2091 31.2091 40 29 40ZM21 40C19.3431 40 18 38.6569 18 37V25C18 23.3431 19.3431 22 21 22C22.6569 22 24 23.3431 24 25V37C24 38.6569 22.6569 40 21 40ZM13 40C10.7909 40 9 38.2091 9 36V14C9 11.7909 10.7909 10 13 10C15.2091 10 17 11.7909 17 14V36C17 38.2091 15.2091 40 13 40ZM4 40C1.79086 40 0 38.2091 0 36V24C0 21.7909 1.79086 20 4 20C6.20914 20 8 21.7909 8 24V36C8 38.2091 6.20914 40 4 40Z" fill="url(#paint0_linear)"/>
<defs>
<linearGradient id="paint0_linear" x1="56" y1="0" x2="56" y2="40" gradientUnits="userSpaceOnUse">
<stop stop-color="#3CC480"/>
<stop offset="1" stop-color="#3CC480" stop-opacity="0.2"/>
</linearGradient>
</defs>
</svg>
