<svg width="22" height="22" viewBox="0 0 22 22" fill="none" xmlns="http://www.w3.org/2000/svg">
<path d="M11.0082 0.285624C5.0905 0.280643 0.290629 5.0739 0.285648 10.9916C0.280668 16.9093 5.07393 21.7092 10.9916 21.7142C16.9086 21.7092 21.7051 16.9168 21.7142 10.9999C21.7142 5.0855 16.9226 0.290604 11.0082 0.285624ZM10.9916 19.9313C6.0591 19.9313 2.06033 15.9325 2.06033 10.9999C2.06033 6.06736 6.0591 2.06859 10.9916 2.06859C15.9225 2.07357 19.918 6.06903 19.923 10.9999C19.923 15.9325 15.9242 19.9313 10.9916 19.9313Z" fill="#FBB500"/>
<path d="M13.886 10.4775C14.6026 10.0737 14.9898 9.26516 14.8563 8.4541C14.6905 7.20191 13.1978 6.72918 12.0202 6.6297V4.74725H10.8592V6.61313H10.0797V4.74725H8.91868V6.61313H6.58008V7.81559H7.45082C7.8406 7.81559 8.03132 7.93169 8.03132 8.2468V13.4132C8.03132 13.8444 7.81569 13.9771 7.5835 13.9771H6.69618V15.2045H8.95183V17.1118H10.1211V15.2045H10.9006V17.1118H12.0367V15.2045H12.2855C14.6738 15.2045 15.47 14.0352 15.47 12.443C15.4509 11.5042 14.7999 10.6965 13.886 10.4775ZM10.0796 7.89022H10.9089C11.4894 7.89022 12.6338 7.98974 12.6338 8.93511C12.6736 9.5521 12.2266 10.0928 11.6138 10.1707H10.0796V7.89022ZM11.365 13.861V13.8527H10.0796V11.3649H11.5723C11.9206 11.3649 13.2309 11.481 13.2309 12.4098C13.2309 13.3386 12.609 13.861 11.365 13.861Z" fill="#FBB500"/>
</svg>
