<svg width="27" height="30" viewBox="0 0 27 30" fill="none" xmlns="http://www.w3.org/2000/svg">
<path d="M24.3756 0.00319236H1.87799C1.62787 -0.0118429 1.3774 0.02635 1.14313 0.115249C0.908851 0.204148 0.696098 0.341732 0.518915 0.518915C0.341732 0.696098 0.204148 0.908851 0.115249 1.14313C0.0263499 1.3774 -0.0118429 1.62787 0.00319237 1.87799V30L5.62759 26.2504L9.37719 30L13.1268 26.2504L16.8764 30L20.626 26.2504L26.2504 30V1.87799C26.2654 1.62787 26.2272 1.3774 26.1383 1.14313C26.0494 0.908851 25.9119 0.696098 25.7347 0.518915C25.5575 0.341732 25.3447 0.204148 25.1105 0.115249C24.8762 0.02635 24.6257 -0.0118429 24.3756 0.00319236ZM20.626 18.7512H5.62759V15.0016H20.626V18.7512ZM20.626 11.252H5.62759V7.50239H20.626V11.252Z" fill="#0073FB"/>
</svg>
