<svg width="21" height="20" viewBox="0 0 21 20" fill="none" xmlns="http://www.w3.org/2000/svg">
<path d="M8.19947 16.998H12.9991C12.9972 17.6338 12.7437 18.2431 12.2941 18.6928C11.8445 19.1424 11.2351 19.3958 10.5993 19.3977C9.96339 19.3958 9.35408 19.1424 8.90444 18.6928C8.4548 18.2431 8.20137 17.6338 8.19947 16.998ZM2.19998 15.7981C2.0399 15.8077 1.8796 15.7832 1.72966 15.7263C1.57972 15.6694 1.44349 15.5814 1.33009 15.468C1.21669 15.3546 1.12876 15.2184 1.07186 15.0685C1.01496 14.9185 0.990464 14.7582 1.00009 14.5982C0.990464 14.4381 1.01496 14.2778 1.07186 14.1278C1.12876 13.9779 1.21669 13.8417 1.33009 13.7283C1.44349 13.6149 1.57972 13.5269 1.72966 13.47C1.8796 13.4131 2.0399 13.3886 2.19998 13.3983H2.79993C3.32303 12.947 3.75138 12.3966 4.06032 11.7787C4.36927 11.1608 4.55267 10.4878 4.59978 9.79857V6.19888C4.59208 5.40887 4.74203 4.62526 5.04081 3.8939C5.33958 3.16253 5.78122 2.49809 6.33987 1.93945C6.89851 1.38081 7.56287 0.939176 8.29424 0.640399C9.02561 0.341622 9.80926 0.191695 10.5993 0.199391C11.3893 0.191532 12.173 0.34135 12.9044 0.640069C13.6359 0.938789 14.3004 1.38041 14.8591 1.93908C15.4178 2.49776 15.8593 3.16227 16.158 3.89371C16.4567 4.62515 16.6066 5.40883 16.5988 6.19888V9.79857C16.6457 10.4878 16.829 11.1609 17.1379 11.7788C17.4469 12.3967 17.8753 12.9472 18.3986 13.3983H18.9986C19.1586 13.3886 19.3189 13.4131 19.4689 13.47C19.6188 13.5269 19.755 13.6149 19.8684 13.7283C19.9818 13.8417 20.0698 13.9779 20.1267 14.1278C20.1836 14.2778 20.2081 14.4381 20.1984 14.5982C20.2081 14.7582 20.1836 14.9185 20.1267 15.0685C20.0698 15.2184 19.9818 15.3546 19.8684 15.468C19.755 15.5814 19.6188 15.6694 19.4689 15.7263C19.3189 15.7832 19.1586 15.8077 18.9986 15.7981H2.19998Z" fill="#170D72"/>
</svg>
