<svg width="24" height="24" viewBox="0 0 24 24" fill="none" xmlns="http://www.w3.org/2000/svg">
<path d="M19.95 7.8L21.6 4.65L19.5 2.55L16.35 4.2C15.8366 3.91088 15.2792 3.70818 14.7 3.6L13.5 0H10.5L9.3 3.45C8.77621 3.58446 8.27203 3.78614 7.8 4.05L4.65 2.4L2.4 4.65L4.05 7.8C3.78614 8.27203 3.58446 8.77621 3.45 9.3L0 10.5V13.5L3.45 14.7C3.6 15.3 3.9 15.75 4.05 16.35L2.4 19.5L4.5 21.6L7.65 19.95C8.16338 20.2391 8.72082 20.4418 9.3 20.55L10.5 24H13.5L14.7 20.55C15.3 20.4 15.75 20.1 16.35 19.95L19.5 21.6L21.6 19.5L19.95 16.35C20.2391 15.8366 20.4418 15.2792 20.55 14.7L24 13.5V10.5L20.55 9.3C20.4155 8.77621 20.2139 8.27203 19.95 7.8ZM12 16.5C11.406 16.511 10.8159 16.4021 10.265 16.1798C9.71407 15.9576 9.21361 15.6265 8.79354 15.2065C8.37347 14.7864 8.04241 14.2859 7.82015 13.735C7.5979 13.1841 7.48901 12.594 7.5 12C7.48901 11.406 7.5979 10.8159 7.82015 10.265C8.04241 9.71407 8.37347 9.21361 8.79354 8.79354C9.21361 8.37347 9.71407 8.04241 10.265 7.82015C10.8159 7.5979 11.406 7.48901 12 7.5C12.594 7.48901 13.1841 7.5979 13.735 7.82015C14.2859 8.04241 14.7864 8.37347 15.2065 8.79354C15.6265 9.21361 15.9576 9.71407 16.1798 10.265C16.4021 10.8159 16.511 11.406 16.5 12C16.511 12.594 16.4021 13.1841 16.1798 13.735C15.9576 14.2859 15.6265 14.7864 15.2065 15.2065C14.7864 15.6265 14.2859 15.9576 13.735 16.1798C13.1841 16.4021 12.594 16.511 12 16.5Z" fill="#A2CDFF"/>
</svg>
