<svg width="24" height="24" viewBox="0 0 24 24" fill="none" xmlns="http://www.w3.org/2000/svg">
<path d="M23.3698 7.77846L12.8706 0.279032C12.6163 0.0974922 12.3117 -9.15527e-05 11.9992 -9.15527e-05C11.6868 -9.15527e-05 11.3821 0.0974922 11.1278 0.279032L0.628576 7.77846C0.304772 8.00958 0.0860406 8.35986 0.0205016 8.75225C-0.0450374 9.14464 0.0479843 9.547 0.279103 9.8708C0.510221 10.1946 0.860505 10.4133 1.25289 10.4789C1.64528 10.5444 2.04764 10.4514 2.37144 10.2203L2.9999 9.77181V22.4983C2.9999 22.8961 3.15792 23.2776 3.4392 23.5589C3.72049 23.8402 4.10199 23.9982 4.49978 23.9982H19.4986C19.8964 23.9982 20.2779 23.8402 20.5592 23.5589C20.8405 23.2776 20.9985 22.8961 20.9985 22.4983V9.77181C21.4029 10.1755 21.9311 10.4317 22.4984 10.4993C22.8164 10.4996 23.1263 10.3989 23.3833 10.2117C23.6403 10.0244 23.8312 9.76036 23.9283 9.45758C24.0254 9.1548 24.0238 8.82898 23.9237 8.52717C23.8236 8.22535 23.6302 7.96317 23.3713 7.77846H23.3698ZM17.9988 20.9985H14.999V16.4988C14.999 15.7032 14.6829 14.9402 14.1204 14.3776C13.5578 13.8151 12.7948 13.499 11.9992 13.499C11.2036 13.499 10.4406 13.8151 9.87805 14.3776C9.31549 14.9402 8.99944 15.7032 8.99944 16.4988V20.9985H5.99967V7.62847L11.9992 3.3433L17.9988 7.62847V20.9985Z" fill="#A2CDFF"/>
</svg>
