<svg width="22" height="21" viewBox="0 0 22 21" fill="none" xmlns="http://www.w3.org/2000/svg">
<path d="M2.96437 8.92859C2.7358 8.92859 2.50723 8.84109 2.33312 8.66698C1.98401 8.31787 1.98401 7.75359 2.33312 7.40448L8.49919 1.23841C8.8483 0.889303 9.41258 0.889303 9.76169 1.23841C10.1108 1.58752 10.1108 2.1518 9.76169 2.50091L3.59562 8.66698C3.42151 8.84109 3.19294 8.92859 2.96437 8.92859Z" fill="#3CC480"/>
<path d="M10.3304 4.46429C10.1562 4.46429 9.98482 4.39643 9.85714 4.26786L6.73214 1.14286C6.54018 0.951786 6.48303 0.663393 6.58661 0.413393C6.69018 0.163393 6.93482 0 7.20536 0H10.3304C10.7 0 11 0.3 11 0.669643V3.79464C11 4.06518 10.8366 4.30982 10.5866 4.41339C10.5036 4.44732 10.417 4.46429 10.3304 4.46429Z" fill="#3CC480"/>
<path d="M6.53585 12.7232V17.8572H1.17871V12.7232C1.17871 12.1072 1.67871 11.6072 2.29478 11.6072H5.41978C6.03585 11.6072 6.53585 12.1072 6.53585 12.7232Z" fill="#3CC480"/>
<path d="M13.6784 9.15178V17.8571H8.32129V9.15178C8.32129 8.53571 8.82129 8.03571 9.43736 8.03571H12.5624C13.1784 8.03571 13.6784 8.53571 13.6784 9.15178Z" fill="#3CC480"/>
<path d="M20.8215 5.58037V17.8572H15.4644V5.58037C15.4644 4.96429 15.9644 4.46429 16.5804 4.46429H19.7054C20.3215 4.46429 20.8215 4.96429 20.8215 5.58037Z" fill="#3CC480"/>
<path d="M21.0446 20.5357H0.955287C0.585645 20.5357 0.285645 20.2357 0.285645 19.8661C0.285645 19.4964 0.585645 19.1964 0.955287 19.1964H21.0446C21.4142 19.1964 21.7142 19.4964 21.7142 19.8661C21.7142 20.2357 21.4142 20.5357 21.0446 20.5357Z" fill="#3CC480"/>
</svg>
