<svg width="80" height="80" viewBox="0 0 80 80" fill="none" xmlns="http://www.w3.org/2000/svg">
<path d="M54.7734 42.6562V80H44.8438C43.55 80 42.5 78.95 42.5 77.6562V45C42.5 43.7063 43.55 42.6562 44.8438 42.6562H54.7734Z" fill="#A2CDFF"/>
<path d="M67.2734 37.6562V80H54.7734V40C54.7734 38.7063 55.8234 37.6562 57.1172 37.6562H67.2734Z" fill="#0073FB"/>
<path d="M61.25 37.6562H67.2734V80H61.25V37.6562Z" fill="#0073FB"/>
<path d="M79.6875 35V77.6562C79.6875 78.95 78.6375 80 77.3438 80H67.2734V35C67.2734 33.7063 68.3234 32.6562 69.6172 32.6562H77.3438C78.6375 32.6562 79.6875 33.7063 79.6875 35Z" fill="#170D72"/>
<path d="M79.9991 2.32453C79.9892 1.0225 78.923 0 77.6562 0H67.5C66.2056 0 65.1562 1.04937 65.1562 2.34375C65.1562 3.63812 66.2056 4.6875 67.5 4.6875H71.998L44.5928 32.0928C43.6775 33.008 43.6775 34.492 44.5928 35.4073C45.5081 36.3227 46.992 36.3227 47.9073 35.4073L75.3125 8.00203V12.5C75.3125 13.7944 76.3619 14.8438 77.6562 14.8438C78.9506 14.8438 80 13.7944 80 12.5C80 1.01609 80.0005 2.45516 79.9991 2.32453Z" fill="#170D72"/>
<path d="M22.45 35.3125C9.73234 35.3125 0 45.5856 0 57.6562C0 69.7352 9.74125 80 22.45 80C34.7219 79.9422 44.6875 69.9406 44.6875 57.6562C44.6875 45.3719 34.7219 35.3703 22.45 35.3125Z" fill="#0073FB"/>
<path d="M44.6875 57.6562C44.6875 69.9406 34.7219 79.9422 22.45 80V35.3125C34.7219 35.3703 44.6875 45.3719 44.6875 57.6562Z" fill="#0073FB"/>
<path d="M22.3438 75.3125C32.095 75.3125 40 67.4075 40 57.6562C40 47.905 32.095 40 22.3438 40C12.5925 40 4.6875 47.905 4.6875 57.6562C4.6875 67.4075 12.5925 75.3125 22.3438 75.3125Z" fill="#A2CDFF"/>
<path d="M40 57.6563C40 67.3563 32.1375 75.2547 22.45 75.311V40.0016C32.1375 40.0578 40 47.9563 40 57.6563Z" fill="#A2CDFF"/>
<path d="M24.7934 67.8625V68.3531C24.7934 69.655 23.7359 70.6968 22.4497 70.6968C21.1575 70.6968 20.1059 69.6468 20.1059 68.3531V68.1281C19.0247 67.939 18.0387 67.5343 16.7919 66.7187C15.7091 66.0093 15.4059 64.5578 16.1153 63.475C16.8247 62.3906 18.2762 62.0875 19.3591 62.7968C20.5678 63.5876 20.9387 63.5906 22.4497 63.5906C23.6391 63.5906 24.4845 62.7398 24.659 61.7C24.7653 61.0734 24.6466 60.2406 23.4856 59.8296C21.7869 59.2311 19.6334 58.4236 18.1294 57.2437C14.9028 54.714 15.8934 48.9515 20.1059 47.4187V47.0797C20.1059 45.7859 21.1559 44.7359 22.4497 44.7359C23.7367 44.7359 24.7934 45.7786 24.7934 47.0797V47.2718C26.3465 47.7297 27.4325 48.6968 27.4325 48.6968C28.3778 49.5718 28.4403 51.0484 27.5684 52C26.695 52.9531 25.2169 53.0187 24.2622 52.15C23.6367 51.6865 22.7111 51.5154 21.7653 51.8031C21.1372 51.9922 20.9684 52.639 20.9325 52.8343C20.8559 53.2375 20.9637 53.5093 21.0216 53.5562C21.9719 54.3036 23.9145 55.0087 25.0481 55.4109C31.2248 57.5953 30.4715 65.8109 24.7934 67.8625Z" fill="#170D72"/>
<path d="M24.7934 67.8625V68.3531C24.7934 69.655 23.7359 70.6968 22.4497 70.6968V63.5906C23.6391 63.5906 24.4845 62.7398 24.6591 61.7C24.7653 61.0734 24.6466 60.2406 23.4856 59.8297C23.3206 59.7715 22.558 59.499 22.4497 59.4547V54.3812C23.092 54.702 24.3742 55.1717 25.0481 55.4109C31.2248 57.5953 30.4716 65.8109 24.7934 67.8625Z" fill="#170D72"/>
<path d="M22.4497 51.672V44.7361C23.7367 44.7361 24.7934 45.7787 24.7934 47.0798V47.272C26.3466 47.7298 27.4325 48.697 27.4325 48.697C28.3778 49.572 28.4403 51.0486 27.5684 52.0001C26.695 52.9533 25.2169 53.0189 24.2622 52.1501C23.7445 51.7664 23.0614 51.6162 22.4497 51.672Z" fill="#170D72"/>
</svg>
