<svg width="24" height="27" viewBox="0 0 24 27" fill="none" xmlns="http://www.w3.org/2000/svg">
<path d="M7.63658 0C5.23004 0 3.27295 1.95709 3.27295 4.36363C3.27295 6.77016 5.23004 8.72725 7.63658 8.72725C10.0431 8.72725 12.0002 6.77021 12.0002 4.36363C12.0002 1.95704 10.0431 0 7.63658 0ZM7.63658 6.54547C6.43328 6.54547 5.45474 5.56692 5.45474 4.36363C5.45474 3.16034 6.43328 2.18179 7.63658 2.18179C8.83987 2.18179 9.81842 3.16034 9.81842 4.36363C9.81836 5.56692 8.83982 6.54547 7.63658 6.54547Z" fill="#A2CDFF"/>
<path d="M8.7273 9.81821H6.54547C2.93564 9.81821 0 12.7538 0 16.3637C0 16.9669 0.488711 17.4546 1.09089 17.4546C1.69308 17.4546 2.18184 16.9669 2.18184 16.3637C2.18184 13.9571 4.13893 12 6.54547 12H8.7273C9.32949 12 9.8182 11.5113 9.8182 10.9092C9.8182 10.307 9.32949 9.81821 8.7273 9.81821Z" fill="#A2CDFF"/>
<path d="M16.3636 8.72729C13.9571 8.72729 12 10.6844 12 13.0909C12 15.4975 13.9571 17.4545 16.3636 17.4545C18.7702 17.4545 20.7273 15.4975 20.7273 13.0909C20.7273 10.6844 18.7702 8.72729 16.3636 8.72729ZM16.3636 15.2728C15.1603 15.2728 14.1818 14.2942 14.1818 13.0909C14.1818 11.8876 15.1603 10.9091 16.3636 10.9091C17.5669 10.9091 18.5455 11.8876 18.5455 13.0909C18.5455 14.2942 17.5669 15.2728 16.3636 15.2728Z" fill="#A2CDFF"/>
<path d="M17.4548 18.5455H15.273C11.6632 18.5455 8.72754 21.4811 8.72754 25.091C8.72754 25.6942 9.21625 26.1819 9.81843 26.1819C10.4206 26.1819 10.9093 25.6942 10.9093 25.091C10.9093 22.6844 12.8664 20.7273 15.273 20.7273H17.4548C19.8613 20.7273 21.8184 22.6844 21.8184 25.091C21.8184 25.6942 22.3061 26.1819 22.9093 26.1819C23.5126 26.1819 24.0002 25.6942 24.0002 25.091C24.0003 21.4811 21.0647 18.5455 17.4548 18.5455Z" fill="#A2CDFF"/>
</svg>
