<svg width="54" height="80" viewBox="0 0 54 80" fill="none" xmlns="http://www.w3.org/2000/svg">
<path d="M26.6668 0C13.7861 0.0146875 3.34815 10.4528 3.33347 23.3333V38.3333C3.33347 39.2538 4.07972 40 5.00018 40H11.6667C12.5872 40 13.3335 39.2538 13.3335 38.3333V23.3333C13.3335 15.9695 19.303 10 26.6668 10C34.0305 10 40 15.9695 40 23.3333V38.3333C40 39.2538 40.7463 40 41.6668 40H48.3335C49.2539 40 50.0002 39.2538 50.0002 38.3333V23.3333C49.9854 10.4528 39.5474 0.0146875 26.6668 0Z" fill="#0073FB"/>
<path d="M48.3334 36.6667H5C2.23859 36.6667 0 38.9053 0 41.6667V71.6667C0 76.269 3.73094 80 8.33328 80H45C49.6023 80 53.3333 76.269 53.3333 71.6667V41.6667C53.3334 38.9053 51.0948 36.6667 48.3334 36.6667Z" fill="#170D72"/>
<path d="M31.17 58.2332C32.5541 56.981 33.3406 55.1996 33.3333 53.3332C33.3333 49.6514 30.3485 46.6665 26.6666 46.6665C22.9847 46.6665 19.9999 49.6514 19.9999 53.3332C19.9927 55.1996 20.7791 56.981 22.1631 58.2332L20.0831 64.4732C19.7922 65.3465 20.2644 66.2903 21.1377 66.5812C21.3081 66.6379 21.4867 66.6668 21.6664 66.6667H31.6664C32.5869 66.6678 33.3341 65.9226 33.3352 65.0021C33.3353 64.8224 33.3066 64.6438 33.2497 64.4734L31.17 58.2332Z" fill="#A2CDFF"/>
</svg>
