<svg width="80" height="80" viewBox="0 0 80 80" fill="none" xmlns="http://www.w3.org/2000/svg">
<path d="M64.7391 24.7391V26.5625H60.0516V24.7391C60.0516 13.6828 51.0562 4.6875 40 4.6875C28.9437 4.6875 19.9484 13.6828 19.9484 24.7391V26.5625H15.2609V24.7391C15.2609 11.0984 26.3578 0 40 0C53.6422 0 64.7391 11.0984 64.7391 24.7391Z" fill="#170D72"/>
<path d="M64.7391 24.7391V26.5625H60.0516V24.7391C60.0516 13.6828 51.0563 4.6875 40 4.6875V0C53.6422 0 64.7391 11.0984 64.7391 24.7391Z" fill="#170D72"/>
<path d="M27.3886 38.8428H18.7992C16.6481 38.8428 14.9042 37.0989 14.9042 34.9478V28.0882C14.9042 25.9371 16.6481 24.1932 18.7992 24.1932H27.3886V38.8428Z" fill="#0073FB"/>
<path d="M52.2986 38.8428H61.2008C63.3519 38.8428 65.0958 37.0989 65.0958 34.9478V28.0882C65.0958 25.9371 63.3519 24.1932 61.2008 24.1932H52.2986V38.8428Z" fill="#0073FB"/>
<path d="M80 73.3734V80H63.8609L61.5172 77.6563L59.1734 80H20.8266L18.4828 77.6563L16.1391 80H0V73.3734C0 70.5078 1.84063 67.9687 4.5625 67.075L28.5719 59.2062H51.4953V59.2281L75.4375 67.075C78.1594 67.9687 80 70.5078 80 73.3734Z" fill="#170D72"/>
<path d="M80 73.3734V80H63.8609L61.5172 77.6563L59.1734 80H40V59.2062H51.4953V59.2281L75.4375 67.075C78.1594 67.9687 80 70.5078 80 73.3734Z" fill="#170D72"/>
<path d="M51.4953 47.8641V59.2063C51.4953 59.2063 45.7141 64.9203 40 64.9203C34.2859 64.9203 28.5719 59.2063 28.5719 59.2063V47.8641H51.4953Z" fill="#A2CDFF"/>
<path d="M51.4953 47.8641V59.2063C51.4953 59.2063 45.7141 64.9203 40 64.9203V47.8641H51.4953Z" fill="#A2CDFF"/>
<path d="M54.8 23.8625V28.7812L53.2813 30.4172H26.7188L25.2 28.7812V23.8625C25.2 19.775 26.8563 16.075 29.5344 13.3969C32.2125 10.7187 35.9125 9.0625 40 9.0625C48.1735 9.0625 54.8 15.6891 54.8 23.8625Z" fill="#170D72"/>
<path d="M54.8 23.8625V28.7812L53.2812 30.4172H40V9.0625C48.1734 9.0625 54.8 15.6891 54.8 23.8625Z" fill="#170D72"/>
<path d="M54.8 28.7906V38.9266C54.8 39.9719 54.7047 40.9922 54.5219 41.9797C54.3735 42.7844 52.2984 44.3235 52.2984 44.3235C52.2984 44.3235 53.2891 45.9219 52.8922 46.6672C50.3531 51.4516 45.5313 54.6813 40 54.6813C35.9125 54.6813 32.2125 52.9188 29.5344 50.0672C26.8563 47.2156 25.2 43.2781 25.2 38.9266V28.7906H33.0938C35.7516 28.7906 38.175 27.7813 40 26.125C42.0719 24.2438 43.3734 21.5297 43.3734 18.5125C43.3734 24.1891 47.975 28.7906 53.6516 28.7906H54.8Z" fill="#A2CDFF"/>
<path d="M54.8 28.7906V38.9266C54.8 39.9719 54.7047 40.9922 54.5219 41.9797C54.3734 42.7844 52.2984 44.3235 52.2984 44.3235C52.2984 44.3235 53.2891 45.9219 52.8922 46.6672C50.3531 51.4516 45.5312 54.6813 40 54.6813V26.125C42.0719 24.2438 43.3734 21.5297 43.3734 18.5125C43.3734 24.1891 47.975 28.7906 53.6516 28.7906H54.8Z" fill="#A2CDFF"/>
<path d="M54.5219 41.9797C54.2141 43.6531 53.6562 45.2297 52.8922 46.6672H42.6891V41.9797H54.5219Z" fill="#170D72"/>
<path d="M16.1384 72.8125H20.8259V80H16.1384V72.8125Z" fill="#0073FB"/>
<path d="M59.1741 72.8125H63.8616V80H59.1741V72.8125Z" fill="#0073FB"/>
</svg>
