<svg width="24" height="24" viewBox="0 0 24 24" fill="none" xmlns="http://www.w3.org/2000/svg">
<path d="M12 0C9.62663 0 7.30655 0.703788 5.33316 2.02236C3.35977 3.34094 1.8217 5.21508 0.913451 7.4078C0.00519937 9.60051 -0.232441 12.0133 0.230582 14.3411C0.693604 16.6689 1.83649 18.807 3.51472 20.4853C5.19295 22.1635 7.33115 23.3064 9.65892 23.7694C11.9867 24.2324 14.3995 23.9948 16.5922 23.0865C18.7849 22.1783 20.6591 20.6402 21.9776 18.6668C23.2962 16.6934 24 14.3734 24 12C23.9905 8.82032 22.7232 5.77359 20.4748 3.52521C18.2264 1.27683 15.1797 0.00949636 12 0V0ZM12 15C11.4067 15 10.8266 14.824 10.3333 14.4944C9.83995 14.1648 9.45543 13.6962 9.22836 13.148C9.0013 12.5999 8.94189 11.9967 9.05765 11.4147C9.1734 10.8328 9.45913 10.2982 9.87868 9.87868C10.2982 9.45912 10.8328 9.1734 11.4147 9.05764C11.9967 8.94189 12.5999 9.0013 13.1481 9.22836C13.6962 9.45542 14.1648 9.83994 14.4944 10.3333C14.8241 10.8266 15 11.4067 15 12C14.9976 12.7949 14.6808 13.5566 14.1187 14.1187C13.5566 14.6808 12.7949 14.9976 12 15ZM12 3C13.3521 2.99468 14.687 3.30274 15.9 3.9L13.566 6.234C12.5446 5.92348 11.4539 5.92348 10.4325 6.234L8.1 3.9C9.31302 3.30274 10.6479 2.99468 12 3ZM3 12C2.99469 10.6479 3.30275 9.31301 3.9 8.1L6.234 10.434C5.92348 11.4554 5.92348 12.5461 6.234 13.5675L3.9 15.9C3.30275 14.687 2.99469 13.3521 3 12ZM12 21C10.6479 21.0053 9.31302 20.6973 8.1 20.1L10.434 17.766C11.4554 18.0765 12.5461 18.0765 13.5675 17.766L15.9 20.1C14.687 20.6973 13.3521 21.0053 12 21ZM20.1 15.9L17.766 13.566C18.0765 12.5446 18.0765 11.4539 17.766 10.4325L20.1 8.1C20.6923 9.31479 21.0001 10.6485 21.0001 12C21.0001 13.3515 20.6923 14.6852 20.1 15.9Z" fill="#170D72"/>
</svg>
