<svg width="24" height="24" viewBox="0 0 24 24" fill="none" xmlns="http://www.w3.org/2000/svg">
<path d="M12 0C18.6276 0 24 5.3724 24 12C24 18.6276 18.6276 24 12 24C5.3724 24 0 18.6276 0 12C0 5.3724 5.3724 0 12 0ZM17.5152 6.4848C17.2704 6.2388 16.884 6.2052 16.5996 6.4044C13.1316 8.838 11.1756 10.2804 10.7268 10.7268C10.0248 11.43 10.0248 12.57 10.7268 13.2732C11.43 13.9752 12.57 13.9752 13.2732 13.2732C13.536 13.0092 14.9748 11.052 17.5908 7.3968C17.7924 7.116 17.76 6.7296 17.5152 6.4848ZM18.6 10.8C17.9376 10.8 17.4 11.3376 17.4 12C17.4 12.6624 17.9376 13.2 18.6 13.2C19.2624 13.2 19.8 12.6624 19.8 12C19.8 11.3376 19.2624 10.8 18.6 10.8ZM5.4 10.8C4.7376 10.8 4.2 11.3376 4.2 12C4.2 12.6624 4.7376 13.2 5.4 13.2C6.0624 13.2 6.6 12.6624 6.6 12C6.6 11.3376 6.0624 10.8 5.4 10.8ZM8.1816 6.4848C7.7136 6.0168 6.9528 6.0168 6.4848 6.4848C6.0168 6.9528 6.0168 7.7124 6.4848 8.1816C6.9528 8.6496 7.7124 8.6496 8.1816 8.1816C8.6496 7.7136 8.6496 6.9528 8.1816 6.4848ZM12 4.2C11.3376 4.2 10.8 4.7376 10.8 5.4C10.8 6.0624 11.3376 6.6 12 6.6C12.6624 6.6 13.2 6.0624 13.2 5.4C13.2 4.7376 12.6624 4.2 12 4.2Z" fill="#0073FB"/>
</svg>
