<svg width="24" height="29" viewBox="0 0 24 29" fill="none" xmlns="http://www.w3.org/2000/svg">
<path d="M13.5158 6.29568C15.7168 4.44664 17.1876 0.28104 16.2825 0.098846C15.0799 -0.14333 12.4683 0.918581 11.206 1.10568C9.41564 1.32184 7.46571 -0.835748 6.37118 0.366894C5.48125 1.34472 7.0092 4.90077 9.39971 6.44996C2.26774 9.95521 -7.75672 27.5519 9.73149 28.8287C33.9294 30.5954 21.8126 9.71147 13.5158 6.29568ZM15.5939 20.1732C15.5195 20.8593 15.1559 21.4796 14.6125 21.9008C14.0386 22.3455 13.3189 22.5524 12.6038 22.6103V23.3683C12.6038 23.5711 12.5153 23.7673 12.3634 23.9015C12.1547 24.0862 11.8481 24.1317 11.5948 24.015C11.3447 23.9 11.1805 23.6435 11.1805 23.3683V22.5399C11.0578 22.5166 10.9361 22.4889 10.8158 22.4558C10.1475 22.2722 9.52757 21.9143 9.07475 21.3847C8.84918 21.1208 8.66529 20.8213 8.53811 20.4979C8.50488 20.4134 8.47526 20.3274 8.44932 20.2404C8.42583 20.1616 8.4016 20.0815 8.39322 19.9994C8.37913 19.8617 8.40643 19.7212 8.47063 19.5985C8.60258 19.3461 8.88064 19.1936 9.16455 19.219C9.44397 19.2438 9.68887 19.4377 9.77683 19.704C9.80393 19.786 9.82231 19.8701 9.85274 19.9513C9.88291 20.0319 9.91933 20.1103 9.96216 20.1849C10.0467 20.3318 10.1527 20.4673 10.2747 20.5849C10.5262 20.8272 10.8465 20.9847 11.1805 21.0784V18.2622C10.5275 18.0932 9.85343 17.8748 9.3142 17.4556C9.05214 17.2517 8.82978 16.9985 8.68414 16.6987C8.53048 16.3823 8.46682 16.0298 8.46423 15.6797C8.46158 15.3243 8.52912 14.9719 8.6774 14.6481C8.8163 14.3448 9.01626 14.0725 9.26143 13.8468C9.78568 13.3643 10.482 13.0952 11.1805 12.9963V12.9344V12.2095C11.1805 12.0067 11.2691 11.8105 11.4209 11.6762C11.6297 11.4917 11.9362 11.4461 12.1895 11.5627C12.4395 11.6779 12.6039 11.9343 12.6039 12.2095V12.9344V12.992C12.697 13.0038 12.7898 13.0178 12.8821 13.0345C13.568 13.1586 14.2388 13.4419 14.7404 13.9364C14.978 14.1706 15.1725 14.4497 15.3093 14.754C15.3475 14.8389 15.3809 14.9258 15.4099 15.0144C15.4368 15.0969 15.4639 15.182 15.4768 15.2682C15.4973 15.4058 15.4764 15.5479 15.4175 15.6738C15.2968 15.9317 15.0263 16.0959 14.7416 16.0838C14.4619 16.0716 14.2085 15.8894 14.1084 15.628C14.0785 15.5502 14.0636 15.4679 14.0332 15.3904C14.0025 15.3119 13.9627 15.237 13.9169 15.1662C13.8278 15.0287 13.7124 14.9108 13.5807 14.8136C13.2954 14.603 12.9494 14.4932 12.6037 14.4319V17.1268C13.0146 17.2252 13.4258 17.3325 13.8195 17.4877C14.4145 17.7223 14.9783 18.0821 15.303 18.6494C15.2526 18.561 15.2036 18.4749 15.3047 18.6523C15.404 18.8266 15.3566 18.7435 15.3068 18.6562C15.5652 19.1115 15.6501 19.656 15.5939 20.1732Z" fill="#A2CDFF"/>
</svg>
