<svg width="24" height="17" viewBox="0 0 24 17" fill="none" xmlns="http://www.w3.org/2000/svg">
<path d="M20.8453 0H3.15469C1.41516 0 0 1.41516 0 3.15469V13.2516C0 14.9911 1.41516 16.4062 3.15469 16.4062H20.8453C22.5848 16.4062 24 14.9911 24 13.2516V3.15469C24 1.41516 22.5848 0 20.8453 0ZM6.27188 12.2798V12.6895C6.27188 13.0777 5.95688 13.3927 5.56875 13.3927C5.18016 13.3927 4.86563 13.0777 4.86563 12.6895V12.3469C4.34391 12.2925 3.91875 12.1411 3.34078 11.7628C3.01547 11.5505 2.92453 11.1145 3.13734 10.7897C3.34969 10.4644 3.78563 10.3734 4.11047 10.5858C4.41656 10.7864 4.61906 10.8834 4.86563 10.9294V8.33953C4.46953 8.15578 4.17094 7.97766 3.92391 7.78406C2.71312 6.83437 3.11438 4.55813 4.86563 4.07531V3.72422C4.86563 3.33562 5.18016 3.02109 5.56875 3.02109C5.95688 3.02109 6.27188 3.33562 6.27188 3.72422V4.0275C7.01625 4.18547 7.48453 4.60594 7.47609 4.61484C7.94672 5.04516 7.64531 5.83594 7.00266 5.83594C6.8175 5.83594 6.64969 5.76375 6.52406 5.64703C6.52406 5.64703 6.43125 5.57062 6.27188 5.49891V7.39641C6.37125 7.43344 6.47063 7.46906 6.56859 7.50375C8.99344 8.36063 8.56313 11.6602 6.27188 12.2798ZM16.125 13.4062H12C11.6119 13.4062 11.2969 13.0913 11.2969 12.7031C11.2969 12.315 11.6119 12 12 12H16.125C16.5131 12 16.8281 12.315 16.8281 12.7031C16.8281 13.0913 16.5131 13.4062 16.125 13.4062ZM20.25 10.4062H12C11.6119 10.4062 11.2969 10.0913 11.2969 9.70312C11.2969 9.315 11.6119 9 12 9H20.25C20.6381 9 20.9531 9.315 20.9531 9.70312C20.9531 10.0913 20.6381 10.4062 20.25 10.4062ZM20.25 7.40625H12C11.6119 7.40625 11.2969 7.09125 11.2969 6.70312C11.2969 6.315 11.6119 6 12 6H20.25C20.6381 6 20.9531 6.315 20.9531 6.70312C20.9531 7.09125 20.6381 7.40625 20.25 7.40625ZM20.25 4.40625H16.125C15.7369 4.40625 15.4219 4.09125 15.4219 3.70312C15.4219 3.315 15.7369 3 16.125 3H20.25C20.6381 3 20.9531 3.315 20.9531 3.70312C20.9531 4.09125 20.6381 4.40625 20.25 4.40625Z" fill="#A2CDFF"/>
</svg>
