<svg width="24" height="26" viewBox="0 0 24 26" fill="none" xmlns="http://www.w3.org/2000/svg">
<path d="M3.78947 20.2105H6.31579V22.7368H21.4737V2.52632H6.31579V5.05263H3.78947V1.26316C3.78947 0.928148 3.92256 0.606858 4.15944 0.36997C4.39633 0.133082 4.71762 0 5.05263 0H22.7368C23.0719 0 23.3931 0.133082 23.63 0.36997C23.8669 0.606858 24 0.928148 24 1.26316V24C24 24.335 23.8669 24.6563 23.63 24.8932C23.3931 25.1301 23.0719 25.2632 22.7368 25.2632H5.05263C4.71762 25.2632 4.39633 25.1301 4.15944 24.8932C3.92256 24.6563 3.78947 24.335 3.78947 24V20.2105ZM6.31579 11.3684H15.1579V13.8947H6.31579V17.6842L0 12.6316L6.31579 7.57895V11.3684Z" fill="#FF4141"/>
</svg>
