<svg width="30" height="26" viewBox="0 0 30 26" fill="none" xmlns="http://www.w3.org/2000/svg">
<path d="M28.5714 4.28571H18.5714C16.2981 4.28571 14.118 5.18877 12.5105 6.79623C10.9031 8.40368 10 10.5839 10 12.8571C10 15.1304 10.9031 17.3106 12.5105 18.9181C14.118 20.5255 16.2981 21.4286 18.5714 21.4286H28.5714V24.2857C28.5714 24.6646 28.4209 25.028 28.153 25.2959C27.8851 25.5638 27.5217 25.7143 27.1429 25.7143H1.42857C1.04969 25.7143 0.686328 25.5638 0.418419 25.2959C0.15051 25.028 0 24.6646 0 24.2857V1.42857C0 1.04969 0.15051 0.686328 0.418419 0.418419C0.686328 0.15051 1.04969 0 1.42857 0H27.1429C27.5217 0 27.8851 0.15051 28.153 0.418419C28.4209 0.686328 28.5714 1.04969 28.5714 1.42857V4.28571ZM18.5714 7.14286H30V18.5714H18.5714C17.0559 18.5714 15.6025 17.9694 14.5308 16.8978C13.4592 15.8261 12.8571 14.3727 12.8571 12.8571C12.8571 11.3416 13.4592 9.88817 14.5308 8.81653C15.6025 7.7449 17.0559 7.14286 18.5714 7.14286ZM18.5714 11.4286V14.2857H22.8571V11.4286H18.5714Z" fill="#0073FB"/>
</svg>
