<svg width="80" height="67" viewBox="0 0 80 67" fill="none" xmlns="http://www.w3.org/2000/svg">
<path d="M70 33.3333H10C4.48672 33.3333 0 28.8466 0 23.3333V10C0 4.48672 4.48672 0 10 0H70C75.5133 0 80 4.48672 80 10V23.3333C80 28.8466 75.5133 33.3333 70 33.3333ZM10 6.66656C8.16328 6.66656 6.66672 8.16328 6.66672 9.99984V23.3333C6.66672 25.17 8.16344 26.6666 10 26.6666H70C71.84 26.6666 73.3333 25.1698 73.3333 23.3333V10C73.3333 8.16328 71.84 6.66672 70 6.66672H10V6.66656Z" fill="#170D72"/>
<path d="M60 16.6666H20V63.3333H60V16.6666Z" fill="#A2CDFF"/>
<path d="M60 66.6666H20C18.16 66.6666 16.6667 65.1766 16.6667 63.3333V16.6666C16.6667 14.8266 18.16 13.3333 20 13.3333H60C61.8433 13.3333 63.3333 14.8266 63.3333 16.6666V63.3333C63.3333 65.1766 61.8433 66.6666 60 66.6666ZM23.3333 60H56.6666V20H23.3333V60Z" fill="#0073FB"/>
<path d="M66.6667 20H13.3333C11.4933 20 10 18.5068 10 16.6668C10 14.8268 11.4933 13.3333 13.3333 13.3333H66.6666C68.5098 13.3333 69.9998 14.8266 69.9998 16.6666C69.9998 18.5066 68.51 20 66.6667 20Z" fill="#0073FB"/>
<path d="M41.3333 48.7001V50.3668C41.3166 50.9968 40.7966 51.5001 40.1666 51.5001C39.5233 51.5368 38.9733 51.0468 38.9333 50.4034C38.9333 50.3901 38.9333 50.3801 38.9333 50.3666V48.6999C36.6733 48.6632 34.51 47.7832 32.8666 46.2332C32.6533 45.9832 32.5333 45.6632 32.5333 45.3332C32.5333 44.4365 33.24 43.7032 34.1333 43.6665C34.4833 43.6698 34.8233 43.7865 35.1 43.9998C36.21 44.873 37.5333 45.4365 38.9333 45.633V39.9998C35.9333 39.233 32.7666 38.1665 32.7666 34.333C32.9466 31.083 35.6799 28.5698 38.9333 28.6663V26.9333C38.95 26.2901 39.4866 25.7801 40.13 25.8001C40.1433 25.8001 40.1533 25.8001 40.1667 25.8001C40.7967 25.8001 41.3167 26.3033 41.3335 26.9333V28.7001C43.2035 28.7933 44.9835 29.5368 46.3667 30.8001C46.5767 31.0401 46.6935 31.3468 46.7 31.6668C46.6833 32.5868 45.92 33.3168 45 33.3001C44.8033 33.3401 44.5967 33.3401 44.4 33.3001C43.4467 32.7168 42.4133 32.2801 41.3333 32.0001V36.9668C44.3333 37.7668 47.6333 38.9335 47.6333 42.8335C47.6333 45.7001 45.6667 48.2666 41.3333 48.7001ZM38.9333 31.7666C37.3333 31.9334 36.3 32.8333 36.3 34.1333C36.3 35.4333 37.4 35.8334 38.9333 36.2666V31.7666ZM41.3333 40.7001V45.6334C43.3 45.3334 44.0666 44.2001 44.0666 43.1001C44.0666 42.0001 42.8999 41.1334 41.3333 40.6668V40.7001Z" fill="#170D72"/>
</svg>
